<svg width="39" height="39" viewBox="0 0 39 39" fill="none" xmlns="http://www.w3.org/2000/svg">
<path d="M19.5 0C8.74059 0 0 7.4295 0 16.575C0 25.7205 8.74059 33.15 19.5 33.15H20.6471V39C31.7965 34.437 39 25.35 39 16.575C39 7.4295 30.2594 0 19.5 0ZM21.7941 28.275H17.2059V24.375H21.7941V28.275ZM21.7941 21.45H17.2059C17.2059 15.1125 24.0882 15.6 24.0882 11.7C24.0882 9.555 22.0235 7.8 19.5 7.8C16.9765 7.8 14.9118 9.555 14.9118 11.7H10.3235C10.3235 7.3905 14.43 3.9 19.5 3.9C24.57 3.9 28.6765 7.3905 28.6765 11.7C28.6765 16.575 21.7941 17.0625 21.7941 21.45Z" fill="#440376"/>
</svg>
