<svg width="40" height="40" viewBox="0 0 40 40" fill="none" xmlns="http://www.w3.org/2000/svg">
<path d="M27.5 0H5C2.25 0 0 1.8 0 4V36C0 38.2 2.25 40 5 40H35C37.75 40 40 38.2 40 36V10L27.5 0ZM5 36V4H25V12H35V36H5ZM30 16V26C30 30.42 25.525 34 20 34C14.475 34 10 30.42 10 26V13C9.99875 12.2989 10.1818 11.6055 10.5373 10.9647C10.8928 10.3239 11.4127 9.75005 12.0634 9.28043C12.7141 8.81081 13.4809 8.45591 14.3142 8.23877C15.1474 8.02162 16.0284 7.94709 16.9 8.02C20.15 8.28 22.5 10.66 22.5 13.28V26H17.5V13C17.5 12.44 16.95 12 16.25 12C15.55 12 15 12.44 15 13V26C15 28.2 17.25 30 20 30C22.75 30 25 28.2 25 26V16H30Z" fill="#440376"/>
</svg>
