<svg width="53" height="50" viewBox="0 0 53 50" fill="none" xmlns="http://www.w3.org/2000/svg">
<path d="M39.4067 22.918V27.0846H48.1638C48.1638 25.6888 48.1638 24.3138 48.1638 22.918C45.4491 22.918 42.0339 22.918 39.4067 22.918Z" fill="#440376"/>
<path d="M35.0269 36.6872C37.1286 38.1663 39.8651 40.1247 42.0325 41.6663C42.9082 40.5622 43.7839 39.4372 44.6596 38.333C42.4923 36.7913 39.7557 34.833 37.654 33.333C36.7783 34.458 35.9026 35.583 35.0269 36.6872Z" fill="#440376"/>
<path d="M44.6596 11.6673C43.7839 10.5632 42.9082 9.43815 42.0325 8.33398C39.8651 9.87565 37.1286 11.834 35.0269 13.334C35.9026 14.4382 36.7783 15.5632 37.654 16.6673C39.7557 15.1673 42.4923 13.2298 44.6596 11.6673Z" fill="#440376"/>
<path d="M8.75841 18.751C6.35022 18.751 4.37988 20.626 4.37988 22.9176V27.0843C4.37988 29.376 6.35022 31.251 8.75841 31.251H10.9477V39.5843H15.3262V31.251H17.5155L28.4618 37.501V12.501L17.5155 18.751H8.75841ZM19.7704 22.3135L24.0833 19.8551V30.1468L19.7704 27.6885L18.7196 27.0843H17.5155H8.75841V22.9176H17.5155H18.7196L19.7704 22.3135Z" fill="#440376"/>
<path d="M33.9328 25.0007C33.9328 22.2298 32.6631 19.7298 30.6489 18.0215V31.959C32.6631 30.2715 33.9328 27.7715 33.9328 25.0007Z" fill="#440376"/>
</svg>
