<svg width="42" height="47" viewBox="0 0 42 47" fill="none" xmlns="http://www.w3.org/2000/svg">
<path d="M24.4421 7.41667L32.7734 17.4792V36.5833H8.62463V7.41667H24.4421ZM24.4421 3.25H8.62463C6.72722 3.25 5.1748 5.125 5.1748 7.41667V36.5833C5.1748 38.875 6.72722 40.75 8.62463 40.75H32.7734C34.6708 40.75 36.2232 38.875 36.2232 36.5833V17.4792C36.2232 16.375 35.861 15.3125 35.2055 14.5417L26.8742 4.47917C26.236 3.6875 25.3563 3.25 24.4421 3.25ZM12.0744 28.25H29.3235V32.4167H12.0744V28.25ZM12.0744 19.9167H29.3235V24.0833H12.0744V19.9167ZM12.0744 11.5833H24.1488V15.75H12.0744V11.5833Z" fill="#440376"/>
</svg>
