<svg width="48" height="48" viewBox="0 0 48 48" fill="none" xmlns="http://www.w3.org/2000/svg">
<path d="M24.0003 2.99609C12.4183 2.99609 2.99634 12.4183 2.99634 23.9998C2.99634 35.5817 12.4183 45.0043 24.0003 45.0043C35.5815 45.0043 45.0042 35.5817 45.0042 23.9998C45.0042 12.4183 35.5815 2.99609 24.0003 2.99609ZM29.9366 16.2553C29.9366 16.3548 29.897 16.4502 29.8267 16.5205C29.7564 16.5908 29.661 16.6303 29.5616 16.6303L27.1739 16.6318C25.5985 16.6318 25.3105 17.2453 25.3105 18.4536V20.9601H29.4056C29.5132 20.9601 29.6159 21.0066 29.6868 21.0876C29.7577 21.1686 29.7907 21.2762 29.7776 21.3831L29.1944 25.8955C29.1828 25.9859 29.1386 26.0689 29.0701 26.1291C29.0016 26.1893 28.9136 26.2225 28.8224 26.2225H25.3105V37.4271C25.3105 37.5266 25.271 37.6219 25.2007 37.6923C25.1304 37.7626 25.035 37.8021 24.9355 37.8021H20.2765C20.177 37.8021 20.0816 37.7626 20.0113 37.6923C19.941 37.6219 19.9015 37.5266 19.9015 37.4271V26.2225H16.3783C16.2789 26.2225 16.1835 26.183 16.1132 26.1126C16.0428 26.0423 16.0033 25.9469 16.0033 25.8475V21.3351C16.0033 21.2356 16.0428 21.1403 16.1132 21.0699C16.1835 20.9996 16.2789 20.9601 16.3783 20.9601H19.9015V18.007C19.9015 14.0957 22.2685 11.6665 26.0796 11.6665C27.718 11.6665 29.1659 11.7883 29.6107 11.8472C29.7008 11.8591 29.7836 11.9034 29.8435 11.9717C29.9035 12.0401 29.9365 12.1279 29.9366 12.2188V16.2553Z" fill="#C1ABD1"/>
</svg>
