<svg width="48" height="48" viewBox="0 0 48 48" fill="none" xmlns="http://www.w3.org/2000/svg">
<path d="M26.568 21.2016H26.6016V21.1488L26.568 21.2016ZM26.568 21.2016H26.6016V21.1488L26.568 21.2016ZM26.568 21.2016H26.6016V21.1488L26.568 21.2016ZM26.568 21.2016H26.6016V21.1488L26.568 21.2016ZM26.568 21.2016H26.6016V21.1488L26.568 21.2016ZM26.568 21.2016H26.6016V21.1488L26.568 21.2016ZM26.568 21.2016H26.6016V21.1488L26.568 21.2016ZM26.568 21.2016H26.6016V21.1488L26.568 21.2016ZM26.568 21.2016H26.6016V21.1488L26.568 21.2016ZM26.568 21.2016H26.6016V21.1488L26.568 21.2016ZM26.568 21.2016H26.6016V21.1488L26.568 21.2016ZM26.568 21.2016H26.6016V21.1488L26.568 21.2016ZM26.568 21.2016H26.6016V21.1488L26.568 21.2016ZM26.568 21.2016H26.6016V21.1488L26.568 21.2016ZM26.568 21.2016H26.6016V21.1488L26.568 21.2016ZM26.568 21.2016H26.6016V21.1488L26.568 21.2016ZM24.384 1.80957C20.0483 1.80957 15.81 3.09525 12.205 5.50403C8.60004 7.9128 5.79029 11.3365 4.13109 15.3421C2.4719 19.3478 2.03778 23.7555 2.88363 28.0079C3.72948 32.2602 5.81731 36.1663 8.8831 39.2321C11.9489 42.2979 15.8549 44.3857 20.1073 45.2316C24.3597 46.0774 28.7674 45.6433 32.773 43.9841C36.7787 42.3249 40.2024 39.5151 42.6112 35.9102C45.0199 32.3052 46.3056 28.0669 46.3056 23.7312C46.2993 17.9191 43.9876 12.347 39.8779 8.23727C35.7682 4.12755 30.196 1.81592 24.384 1.80957ZM18.9024 33.6C18.9012 33.6972 18.8617 33.7899 18.7925 33.8582C18.7233 33.9265 18.63 33.9648 18.5328 33.9648H14.3088C14.2121 33.9648 14.1193 33.9263 14.0509 33.8579C13.9824 33.7895 13.944 33.6967 13.944 33.6V19.4064C13.9434 19.3581 13.9523 19.3101 13.9704 19.2653C13.9884 19.2205 14.0152 19.1797 14.0491 19.1453C14.0831 19.1109 14.1235 19.0836 14.1681 19.065C14.2127 19.0464 14.2605 19.0368 14.3088 19.0368H18.5328C18.5814 19.0368 18.6294 19.0463 18.6743 19.0649C18.7191 19.0835 18.7598 19.1107 18.7942 19.145C18.8285 19.1793 18.8557 19.2201 18.8743 19.2649C18.8929 19.3098 18.9024 19.3578 18.9024 19.4064V33.6ZM16.272 17.1408C15.747 17.1408 15.2338 16.9851 14.7973 16.6934C14.3608 16.4018 14.0206 15.9872 13.8197 15.5022C13.6188 15.0171 13.5662 14.4834 13.6686 13.9685C13.771 13.4536 14.0238 12.9807 14.3951 12.6094C14.7663 12.2382 15.2393 11.9854 15.7542 11.883C16.2691 11.7806 16.8028 11.8331 17.2878 12.034C17.7728 12.2349 18.1874 12.5752 18.4791 13.0117C18.7707 13.4482 18.9264 13.9614 18.9264 14.4864C18.927 14.8351 18.8588 15.1806 18.7256 15.5029C18.5925 15.8252 18.397 16.1181 18.1504 16.3647C17.9038 16.6113 17.6109 16.8068 17.2886 16.94C16.9662 17.0732 16.6208 17.1414 16.272 17.1408ZM36.7776 33.6C36.7764 33.6972 36.7369 33.7899 36.6677 33.8582C36.5985 33.9265 36.5052 33.9648 36.408 33.9648H32.184C32.1361 33.9648 32.0887 33.9553 32.0444 33.937C32.0002 33.9187 31.9599 33.8918 31.9261 33.8579C31.8922 33.8241 31.8653 33.7838 31.847 33.7396C31.8287 33.6953 31.8192 33.6479 31.8192 33.6V25.9728C31.8192 23.9664 31.104 22.6128 29.3088 22.6128C28.7494 22.6159 28.2047 22.7919 27.7492 23.1168C27.2938 23.4416 26.95 23.8993 26.7648 24.4272C26.6383 24.8173 26.583 25.227 26.6016 25.6368V33.6C26.6016 33.698 26.5627 33.792 26.4934 33.8613C26.424 33.9306 26.33 33.9696 26.232 33.9696H22.008C21.9597 33.9696 21.9119 33.96 21.8673 33.9414C21.8227 33.9227 21.7823 33.8954 21.7483 33.861C21.7144 33.8266 21.6876 33.7859 21.6696 33.7411C21.6515 33.6962 21.6426 33.6483 21.6432 33.6C21.6432 31.5744 21.696 21.7392 21.6432 19.4256C21.6426 19.3773 21.6515 19.3293 21.6696 19.2845C21.6876 19.2397 21.7144 19.1989 21.7483 19.1645C21.7823 19.1301 21.8227 19.1028 21.8673 19.0842C21.9119 19.0656 21.9597 19.056 22.008 19.056H26.2224C26.2711 19.0553 26.3195 19.0644 26.3646 19.0828C26.4097 19.1011 26.4507 19.1283 26.4852 19.1628C26.5196 19.1972 26.5469 19.2382 26.5652 19.2834C26.5835 19.3285 26.5927 19.3769 26.592 19.4256V21.168C27.041 20.3886 27.6949 19.747 28.4827 19.3129C29.2705 18.8788 30.1621 18.6688 31.0608 18.7056C34.32 18.7056 36.768 20.8368 36.768 25.4256L36.7776 33.6ZM26.6016 21.216V21.1632L26.568 21.216H26.6016ZM26.568 21.216H26.6016V21.1632L26.568 21.216ZM26.568 21.216H26.6016V21.1632L26.568 21.216ZM26.568 21.216H26.6016V21.1632L26.568 21.216ZM26.568 21.216H26.6016V21.1632L26.568 21.216ZM26.568 21.216H26.6016V21.1632L26.568 21.216ZM26.568 21.216H26.6016V21.1632L26.568 21.216ZM26.568 21.216H26.6016V21.1632L26.568 21.216ZM26.568 21.216H26.6016V21.1632L26.568 21.216ZM26.568 21.216H26.6016V21.1632L26.568 21.216ZM26.568 21.216H26.6016V21.1632L26.568 21.216ZM26.568 21.216H26.6016V21.1632L26.568 21.216ZM26.568 21.216H26.6016V21.1632L26.568 21.216ZM26.568 21.216H26.6016V21.1632L26.568 21.216ZM26.568 21.216H26.6016V21.1632L26.568 21.216Z" fill="#C1ABD1"/>
</svg>
