<svg width="48" height="48" viewBox="0 0 48 48" fill="none" xmlns="http://www.w3.org/2000/svg">
<path d="M23.9996 2.99609C12.4185 2.99609 2.99622 12.4183 2.99622 23.9998C2.99622 35.5817 12.4185 45.0043 23.9996 45.0043C35.5815 45.0043 45.0037 35.5817 45.0037 23.9998C45.0033 12.4183 35.5811 2.99609 23.9996 2.99609ZM35.1783 18.5218C34.6214 19.3558 33.9288 20.0907 33.1293 20.6961C33.1327 20.818 33.135 20.9398 33.135 21.0617C33.135 27.187 28.4741 33.5226 20.6741 33.5226C18.2938 33.5237 15.9633 32.8412 13.9597 31.5561C13.8883 31.5105 13.8345 31.442 13.8071 31.3618C13.7797 31.2816 13.7804 31.1945 13.809 31.1147C13.8368 31.0345 13.8913 30.9663 13.9634 30.9214C14.0354 30.8765 14.1207 30.8576 14.205 30.868C14.5338 30.9058 14.8597 30.9246 15.174 30.9246C16.704 30.9246 18.162 30.5132 19.4418 29.7272C18.671 29.5412 17.9611 29.1598 17.3804 28.6199C16.7996 28.0799 16.3677 27.3996 16.1261 26.6443C16.1063 26.5823 16.103 26.5163 16.1164 26.4526C16.1298 26.3889 16.1595 26.3297 16.2026 26.281C16.2457 26.2321 16.3009 26.1954 16.3626 26.1746C16.4243 26.1537 16.4904 26.1494 16.5543 26.1621C16.6248 26.1756 16.6957 26.1872 16.7662 26.197C15.4638 25.3671 14.619 23.908 14.619 22.2925V22.2388C14.619 22.1736 14.6361 22.1095 14.6685 22.0528C14.7009 21.9962 14.7475 21.949 14.8038 21.9159C14.86 21.8828 14.9239 21.8649 14.9892 21.8641C15.0544 21.8632 15.1188 21.8794 15.1758 21.9111C15.339 22.0015 15.5081 22.0798 15.6817 22.1458C15.0153 21.3222 14.6523 20.2946 14.6535 19.2351C14.6535 18.4183 14.8698 17.6143 15.279 16.9105C15.3094 16.858 15.3521 16.8137 15.4035 16.7814C15.4548 16.749 15.5132 16.7296 15.5737 16.7248C15.6342 16.7201 15.6949 16.73 15.7507 16.7538C15.8065 16.7777 15.8556 16.8147 15.894 16.8617C17.8886 19.3075 20.7881 20.8461 23.907 21.1296C23.8849 20.9438 23.8738 20.7568 23.874 20.5697C23.874 18.0208 25.9481 15.9471 28.4973 15.9471C29.7 15.9471 30.8636 16.4215 31.722 17.2547C32.5609 17.068 33.3648 16.7491 34.1036 16.3101C34.122 16.2522 34.1542 16.1997 34.1974 16.1571C34.2407 16.1144 34.2936 16.0829 34.3517 16.0652C34.4098 16.0475 34.4713 16.0442 34.5309 16.0555C34.5906 16.0669 34.6466 16.0925 34.6942 16.1303C34.7417 16.1681 34.7794 16.2168 34.8039 16.2724C34.8284 16.3279 34.8391 16.3886 34.835 16.4492C34.831 16.5098 34.8122 16.5684 34.7804 16.6202C34.7487 16.6719 34.7048 16.7152 34.6526 16.7462C34.4689 17.3219 34.1733 17.8557 33.7826 18.3167C34.1004 18.2207 34.4118 18.105 34.7152 17.9702C34.7895 17.9374 34.8724 17.9296 34.9516 17.948C35.0307 17.9664 35.1017 18.0099 35.1539 18.0721C35.2061 18.1343 35.2367 18.2118 35.2411 18.2929C35.2456 18.374 35.2235 18.4544 35.1783 18.5218Z" fill="#C1ABD1"/>
</svg>
